<svg preserveAspectRatio="none" width="100%" height="100%" overflow="visible" style="display: block;" viewBox="0 0 13.3333 13.3333" fill="none" xmlns="http://www.w3.org/2000/svg">
<path id="Vector" d="M6.66667 0C6.84348 0 7.01305 0.0702379 7.13807 0.195262C7.26309 0.320286 7.33333 0.489856 7.33333 0.666667V2.66667C7.33333 2.84348 7.26309 3.01305 7.13807 3.13807C7.01305 3.2631 6.84348 3.33333 6.66667 3.33333C6.48986 3.33333 6.32029 3.2631 6.19526 3.13807C6.07024 3.01305 6 2.84348 6 2.66667V0.666667C6 0.489856 6.07024 0.320286 6.19526 0.195262C6.32029 0.0702379 6.48986 0 6.66667 0V0ZM6.66667 10C6.84348 10 7.01305 10.0702 7.13807 10.1953C7.26309 10.3203 7.33333 10.4899 7.33333 10.6667V12.6667C7.33333 12.8435 7.26309 13.013 7.13807 13.1381C7.01305 13.2631 6.84348 13.3333 6.66667 13.3333C6.48986 13.3333 6.32029 13.2631 6.19526 13.1381C6.07024 13.013 6 12.8435 6 12.6667V10.6667C6 10.4899 6.07024 10.3203 6.19526 10.1953C6.32029 10.0702 6.48986 10 6.66667 10V10ZM13.3333 6.66667C13.3333 6.84348 13.2631 7.01305 13.1381 7.13807C13.013 7.26309 12.8435 7.33333 12.6667 7.33333H10.6667C10.4899 7.33333 10.3203 7.26309 10.1953 7.13807C10.0702 7.01305 10 6.84348 10 6.66667C10 6.48986 10.0702 6.32029 10.1953 6.19526C10.3203 6.07024 10.4899 6 10.6667 6H12.6667C12.8435 6 13.013 6.07024 13.1381 6.19526C13.2631 6.32029 13.3333 6.48986 13.3333 6.66667ZM3.33333 6.66667C3.33333 6.84348 3.2631 7.01305 3.13807 7.13807C3.01305 7.26309 2.84348 7.33333 2.66667 7.33333H0.666667C0.489856 7.33333 0.320286 7.26309 0.195262 7.13807C0.0702379 7.01305 0 6.84348 0 6.66667C0 6.48986 0.0702379 6.32029 0.195262 6.19526C0.320286 6.07024 0.489856 6 0.666667 6H2.66667C2.84348 6 3.01305 6.07024 3.13807 6.19526C3.2631 6.32029 3.33333 6.48986 3.33333 6.66667ZM11.3807 11.3807C11.2556 11.5056 11.0861 11.5759 10.9093 11.5759C10.7326 11.5759 10.563 11.5056 10.438 11.3807L9.024 9.96667C8.90256 9.84093 8.83536 9.67253 8.83688 9.49773C8.8384 9.32293 8.90852 9.15573 9.03212 9.03212C9.15573 8.90852 9.32293 8.8384 9.49773 8.83688C9.67253 8.83536 9.84093 8.90256 9.96667 9.024L11.3807 10.4373C11.4426 10.4992 11.4918 10.5728 11.5254 10.6537C11.5589 10.7346 11.5762 10.8214 11.5762 10.909C11.5762 10.9966 11.5589 11.0834 11.5254 11.1643C11.4918 11.2452 11.4426 11.3188 11.3807 11.3807V11.3807ZM4.30933 4.30933C4.18431 4.43431 4.01478 4.50452 3.838 4.50452C3.66122 4.50452 3.49169 4.43431 3.36667 4.30933L1.95333 2.896C1.82824 2.77099 1.75793 2.60142 1.75786 2.42457C1.7578 2.24772 1.82799 2.07809 1.953 1.953C2.07801 1.82791 2.24758 1.75759 2.42443 1.75753C2.60128 1.75747 2.77091 1.82766 2.896 1.95267L4.30933 3.36667C4.43431 3.49169 4.50452 3.66122 4.50452 3.838C4.50452 4.01478 4.43431 4.18431 4.30933 4.30933V4.30933ZM1.95333 11.3807C1.82835 11.2556 1.75814 11.0861 1.75814 10.9093C1.75814 10.7326 1.82835 10.563 1.95333 10.438L3.36733 9.024C3.42883 8.96033 3.50239 8.90954 3.58373 8.8746C3.66507 8.83966 3.75255 8.82127 3.84107 8.8205C3.92959 8.81973 4.01737 8.8366 4.0993 8.87012C4.18123 8.90364 4.25567 8.95314 4.31826 9.01574C4.38086 9.07833 4.43036 9.15277 4.46388 9.2347C4.4974 9.31663 4.51427 9.40441 4.5135 9.49293C4.51273 9.58145 4.49434 9.66893 4.4594 9.75027C4.42446 9.8316 4.37367 9.90517 4.31 9.96667L2.89667 11.3807C2.83475 11.4426 2.76123 11.4918 2.68029 11.5254C2.59936 11.5589 2.51261 11.5762 2.425 11.5762C2.33739 11.5762 2.25064 11.5589 2.16971 11.5254C2.08877 11.4918 2.01525 11.4426 1.95333 11.3807V11.3807ZM9.024 4.30933C8.89902 4.18431 8.82881 4.01478 8.82881 3.838C8.82881 3.66122 8.89902 3.49169 9.024 3.36667L10.4373 1.95267C10.5623 1.82757 10.7319 1.75726 10.9088 1.7572C11.0856 1.75714 11.2552 1.82733 11.3803 1.95233C11.5054 2.07734 11.5757 2.24692 11.5758 2.42376C11.5759 2.60061 11.5057 2.77024 11.3807 2.89533L9.96667 4.30933C9.84165 4.43431 9.67211 4.50452 9.49533 4.50452C9.31856 4.50452 9.14902 4.43431 9.024 4.30933V4.30933Z" fill="var(--fill-0, #0D1126)" fill-opacity="0.4"/>
</svg>
