<svg width="1640" height="313" viewBox="0 0 1640 313" fill="none" xmlns="http://www.w3.org/2000/svg">
<path d="M0 0H1640V313H0V0Z" fill="white"/>
<path d="M1639.5 0.5V312.5H0.5V0.5H1639.5Z" stroke="#0A0F29" stroke-opacity="0.08"/>
<path d="M33.8711 53V38.8594H42.6406V40.7148H36.0195V44.9922H42.0156V46.8281H36.0195V53H33.8711ZM48.3781 53.2148C45.3703 53.2148 43.4172 51.0273 43.4172 47.7461C43.4172 44.4453 45.3703 42.2578 48.3781 42.2578C51.3664 42.2578 53.3195 44.4453 53.3195 47.7461C53.3195 51.0273 51.3664 53.2148 48.3781 53.2148ZM48.3781 51.4766C50.2922 51.4766 51.2102 49.7773 51.2102 47.7461C51.2102 45.7148 50.2922 43.9766 48.3781 43.9766C46.425 43.9766 45.507 45.7148 45.507 47.7461C45.507 49.7773 46.425 51.4766 48.3781 51.4766ZM61.9086 48.5859V42.3945H63.9789V53H61.9477V51.1641H61.8305C61.3422 52.2969 60.2484 53.1367 58.6664 53.1367C56.6156 53.1367 55.1703 51.7695 55.1703 49.1328V42.3945H57.2602V48.8789C57.2602 50.3242 58.1391 51.2422 59.4086 51.2422C60.5609 51.2422 61.9086 50.4023 61.9086 48.5859ZM68.4078 46.7109V53H66.318V42.3945H68.3297V44.1328H68.4469C68.9547 43 69.9898 42.2578 71.5719 42.2578C73.7594 42.2578 75.1852 43.625 75.1852 46.2617V53H73.1148V46.5156C73.1148 44.9727 72.275 44.0547 70.8688 44.0547C69.443 44.0547 68.4078 45.0117 68.4078 46.7109ZM81.4891 53.2148C78.9305 53.2148 77.0555 51.1445 77.0555 47.7266C77.0555 44.2695 78.95 42.2578 81.5086 42.2578C83.4813 42.2578 84.2039 43.4492 84.575 44.1133H84.6727V38.8594H86.7625V53H84.7313V51.3398H84.575C84.1844 52.043 83.4227 53.2148 81.4891 53.2148ZM81.9578 51.4375C83.7352 51.4375 84.7313 49.9141 84.7313 47.6875C84.7313 45.4805 83.7547 44.0352 81.9578 44.0352C80.1023 44.0352 79.1844 45.5977 79.1844 47.6875C79.1844 49.8164 80.1414 51.4375 81.9578 51.4375ZM88.7891 50.0117C88.7891 47.5898 90.8398 46.9648 92.7539 46.8281C93.457 46.7793 95.0488 46.6914 95.5469 46.6719L95.5273 45.832C95.5273 44.6406 94.8047 43.9375 93.3789 43.9375C92.1484 43.9375 91.4062 44.5039 91.1914 45.2852H89.1211C89.3164 43.5273 90.957 42.2578 93.457 42.2578C95.1367 42.2578 97.6172 42.8828 97.6172 45.9492V53H95.5859V51.5547H95.5078C95.0977 52.3555 94.1211 53.2344 92.3633 53.2344C90.3516 53.2344 88.7891 52.082 88.7891 50.0117ZM90.8203 50.0312C90.8203 51.0469 91.6602 51.5742 92.832 51.5742C94.5312 51.5742 95.5469 50.4414 95.5469 49.1719V48.1953L93.0469 48.3711C91.6797 48.4688 90.8203 48.9766 90.8203 50.0312ZM104.898 42.3945V44.0547H102.73V49.875C102.73 51.0664 103.335 51.2812 103.999 51.3008C104.292 51.3008 104.761 51.2617 105.054 51.2422V53.0586C104.761 53.0977 104.312 53.1367 103.745 53.1367C102.105 53.1367 100.64 52.2383 100.659 50.3047V44.0547H99.0969V42.3945H100.659V39.8555H102.73V42.3945H104.898ZM106.729 53V42.3945H108.819V53H106.729ZM107.784 40.7539C107.061 40.7539 106.455 40.207 106.455 39.5234C106.455 38.8398 107.061 38.293 107.784 38.293C108.487 38.293 109.092 38.8398 109.092 39.5234C109.092 40.207 108.487 40.7539 107.784 40.7539ZM115.65 53.2148C112.642 53.2148 110.689 51.0273 110.689 47.7461C110.689 44.4453 112.642 42.2578 115.65 42.2578C118.638 42.2578 120.591 44.4453 120.591 47.7461C120.591 51.0273 118.638 53.2148 115.65 53.2148ZM115.65 51.4766C117.564 51.4766 118.482 49.7773 118.482 47.7461C118.482 45.7148 117.564 43.9766 115.65 43.9766C113.697 43.9766 112.779 45.7148 112.779 47.7461C112.779 49.7773 113.697 51.4766 115.65 51.4766ZM124.532 46.7109V53H122.442V42.3945H124.454V44.1328H124.571C125.079 43 126.114 42.2578 127.696 42.2578C129.884 42.2578 131.309 43.625 131.309 46.2617V53H129.239V46.5156C129.239 44.9727 128.399 44.0547 126.993 44.0547C125.567 44.0547 124.532 45.0117 124.532 46.7109ZM139.605 45.2852C139.41 44.4453 138.746 43.8984 137.594 43.8984C136.402 43.8984 135.543 44.5234 135.562 45.3242C135.543 45.9492 136.051 46.3984 137.223 46.6719L138.902 47.0625C140.855 47.4922 141.793 48.4297 141.812 49.9336C141.793 51.8477 140.191 53.2148 137.477 53.2148C134.938 53.2148 133.414 52.082 133.16 50.1094H135.289C135.465 51.0664 136.207 51.5352 137.457 51.5352C138.805 51.5352 139.664 50.9883 139.684 50.0898C139.664 49.4062 139.156 48.957 138.043 48.7031L136.383 48.3516C134.469 47.9219 133.473 46.9062 133.473 45.4414C133.473 43.5469 135.113 42.2578 137.574 42.2578C139.938 42.2578 141.402 43.4688 141.617 45.2852H139.605Z" fill="#0F1324" fill-opacity="0.6"/>
<path d="M165.693 38.1953L161.143 55.1289H159.287L163.838 38.1953H165.693Z" fill="#0D1126" fill-opacity="0.4"/>
<path d="M196.327 40.7344L192.285 44.7773L188.202 40.7344L192.285 36.6523L196.327 40.7344ZM201.523 45.9297L197.48 50.0117L193.456 45.9297L197.48 41.8867L201.523 45.9297ZM191.132 45.9297L187.05 50.0117L182.949 45.9297L187.05 41.8867L191.132 45.9297ZM196.327 51.1836L192.285 55.207L188.202 51.1836L192.285 47.082L196.327 51.1836ZM210.359 38.8594V53H208.211V38.8594H210.359ZM217.347 53.2148C214.261 53.2148 212.386 50.9297 212.386 47.7461C212.386 44.5039 214.319 42.2578 217.308 42.2578C219.73 42.2578 221.487 43.6836 221.702 45.832H219.671C219.456 44.8359 218.655 43.9961 217.347 43.9961C215.628 43.9961 214.476 45.4219 214.476 47.6875C214.476 50.0117 215.608 51.4375 217.347 51.4375C218.519 51.4375 219.417 50.793 219.671 49.6406H221.702C221.468 51.6914 219.847 53.2148 217.347 53.2148ZM227.967 53.2148C224.959 53.2148 223.006 51.0273 223.006 47.7461C223.006 44.4453 224.959 42.2578 227.967 42.2578C230.955 42.2578 232.908 44.4453 232.908 47.7461C232.908 51.0273 230.955 53.2148 227.967 53.2148ZM227.967 51.4766C229.881 51.4766 230.799 49.7773 230.799 47.7461C230.799 45.7148 229.881 43.9766 227.967 43.9766C226.014 43.9766 225.096 45.7148 225.096 47.7461C225.096 49.7773 226.014 51.4766 227.967 51.4766ZM236.849 46.7109V53H234.759V42.3945H236.771V44.1328H236.888C237.396 43 238.431 42.2578 240.013 42.2578C242.201 42.2578 243.626 43.625 243.626 46.2617V53H241.556V46.5156C241.556 44.9727 240.716 44.0547 239.31 44.0547C237.884 44.0547 236.849 45.0117 236.849 46.7109ZM251.923 45.2852C251.727 44.4453 251.063 43.8984 249.911 43.8984C248.719 43.8984 247.86 44.5234 247.88 45.3242C247.86 45.9492 248.368 46.3984 249.54 46.6719L251.219 47.0625C253.173 47.4922 254.11 48.4297 254.13 49.9336C254.11 51.8477 252.508 53.2148 249.794 53.2148C247.255 53.2148 245.731 52.082 245.477 50.1094H247.606C247.782 51.0664 248.524 51.5352 249.774 51.5352C251.122 51.5352 251.981 50.9883 252.001 50.0898C251.981 49.4062 251.473 48.957 250.36 48.7031L248.7 48.3516C246.786 47.9219 245.79 46.9062 245.79 45.4414C245.79 43.5469 247.43 42.2578 249.891 42.2578C252.255 42.2578 253.719 43.4688 253.934 45.2852H251.923Z" fill="#0F1324" fill-opacity="0.6"/>
<path d="M32 84H1608" stroke="#E9EAEC"/>
<path d="M39.0781 192V124.125H63.2656C79.0156 124.125 86.7969 132.938 86.7969 145.406C86.7969 154.547 82.6719 161.484 74.4219 164.531L89.4219 192H77.7031L63.9219 166.406H63.2656H49.3906V192H39.0781ZM49.3906 157.5H62.2344C72.2656 157.5 76.3906 153.094 76.3906 145.406C76.3906 137.719 72.2656 132.938 62.2344 132.938H49.3906V157.5ZM115.072 193.031C100.072 193.031 90.8844 182.719 90.8844 166.875C90.8844 151.219 100.259 140.438 114.416 140.438C126.041 140.438 137.009 147.656 137.009 166.031V169.594H100.822C101.103 179.25 106.775 184.781 115.166 184.781C120.884 184.781 124.541 182.344 126.228 179.25H136.353C134.103 187.5 126.228 193.031 115.072 193.031ZM100.916 162.094H127.166C127.166 154.312 122.197 148.688 114.509 148.688C106.494 148.688 101.291 154.875 100.916 162.094ZM143.347 192V141.094H153.003V149.438H153.566C155.722 143.719 160.691 140.438 167.441 140.438C174.191 140.438 178.972 143.812 181.128 149.438H181.691C184.128 143.906 189.566 140.438 196.972 140.438C206.159 140.438 212.722 146.25 212.722 157.875V192H202.691V158.812C202.691 151.969 198.378 149.062 193.128 149.062C186.659 149.062 183.003 153.469 183.003 159.562V192H173.066V158.25C173.066 152.719 169.222 149.062 163.784 149.062C158.159 149.062 153.378 153.75 153.378 160.594V192H143.347ZM221.216 192V141.094H231.247V192H221.216ZM226.278 133.219C222.809 133.219 219.903 130.594 219.903 127.312C219.903 124.031 222.809 121.406 226.278 121.406C229.653 121.406 232.559 124.031 232.559 127.312C232.559 130.594 229.653 133.219 226.278 133.219ZM247.803 141.094L258.959 160.875L270.209 141.094H281.178L265.334 166.5L281.272 192H270.397L258.959 172.969L247.616 192H236.647L252.397 166.5L236.741 141.094H247.803ZM317.666 124.125V192H307.353V124.125H317.666ZM348.566 193.031C333.753 193.031 324.753 182.062 324.753 166.781C324.753 151.219 334.034 140.438 348.378 140.438C360.003 140.438 368.441 147.281 369.472 157.594H359.722C358.691 152.812 354.847 148.781 348.566 148.781C340.316 148.781 334.784 155.625 334.784 166.5C334.784 177.656 340.222 184.5 348.566 184.5C354.191 184.5 358.503 181.406 359.722 175.875H369.472C368.347 185.719 360.566 193.031 348.566 193.031ZM396.903 193.031C382.466 193.031 373.091 182.531 373.091 166.781C373.091 150.938 382.466 140.438 396.903 140.438C411.247 140.438 420.622 150.938 420.622 166.781C420.622 182.531 411.247 193.031 396.903 193.031ZM396.903 184.688C406.091 184.688 410.497 176.531 410.497 166.781C410.497 157.031 406.091 148.688 396.903 148.688C387.528 148.688 383.122 157.031 383.122 166.781C383.122 176.531 387.528 184.688 396.903 184.688ZM436.897 161.812V192H426.866V141.094H436.522V149.438H437.084C439.522 144 444.491 140.438 452.084 140.438C462.584 140.438 469.428 147 469.428 159.656V192H459.491V160.875C459.491 153.469 455.459 149.062 448.709 149.062C441.866 149.062 436.897 153.656 436.897 161.812ZM506.609 154.969C505.672 150.938 502.484 148.312 496.953 148.312C491.234 148.312 487.109 151.312 487.203 155.156C487.109 158.156 489.547 160.312 495.172 161.625L503.234 163.5C512.609 165.562 517.109 170.062 517.203 177.281C517.109 186.469 509.422 193.031 496.391 193.031C484.203 193.031 476.891 187.594 475.672 178.125H485.891C486.734 182.719 490.297 184.969 496.297 184.969C502.766 184.969 506.891 182.344 506.984 178.031C506.891 174.75 504.453 172.594 499.109 171.375L491.141 169.688C481.953 167.625 477.172 162.75 477.172 155.719C477.172 146.625 485.047 140.438 496.859 140.438C508.203 140.438 515.234 146.25 516.266 154.969H506.609Z" fill="#14151A"/>
<path d="M33.4091 250V238.364H37.3409C38.25 238.364 38.9962 238.519 39.5795 238.83C40.1629 239.136 40.5947 239.559 40.875 240.097C41.1553 240.634 41.2955 241.246 41.2955 241.932C41.2955 242.617 41.1553 243.225 40.875 243.756C40.5947 244.286 40.1648 244.703 39.5852 245.006C39.0057 245.305 38.2652 245.455 37.3636 245.455H34.1818V244.182H37.3182C37.9394 244.182 38.4394 244.091 38.8182 243.909C39.2008 243.727 39.4773 243.47 39.6477 243.136C39.822 242.799 39.9091 242.398 39.9091 241.932C39.9091 241.466 39.822 241.059 39.6477 240.71C39.4735 240.362 39.1951 240.093 38.8125 239.903C38.4299 239.71 37.9242 239.614 37.2955 239.614H34.8182V250H33.4091ZM38.8864 244.773L41.75 250H40.1136L37.2955 244.773H38.8864ZM46.867 250.182C46.0261 250.182 45.3007 249.996 44.6909 249.625C44.0848 249.25 43.617 248.727 43.2874 248.057C42.9617 247.383 42.7988 246.598 42.7988 245.705C42.7988 244.811 42.9617 244.023 43.2874 243.341C43.617 242.655 44.0753 242.121 44.6624 241.739C45.2534 241.352 45.9427 241.159 46.7306 241.159C47.1852 241.159 47.634 241.235 48.0772 241.386C48.5204 241.538 48.9238 241.784 49.2874 242.125C49.6511 242.462 49.9409 242.909 50.1568 243.466C50.3727 244.023 50.4806 244.708 50.4806 245.523V246.091H43.7534V244.932H49.117C49.117 244.439 49.0185 244 48.8215 243.614C48.6284 243.227 48.3518 242.922 47.992 242.699C47.6359 242.475 47.2155 242.364 46.7306 242.364C46.1965 242.364 45.7344 242.496 45.3443 242.761C44.9579 243.023 44.6605 243.364 44.4522 243.784C44.2439 244.205 44.1397 244.655 44.1397 245.136V245.909C44.1397 246.568 44.2534 247.127 44.4806 247.585C44.7117 248.04 45.0318 248.386 45.4409 248.625C45.8499 248.86 46.3253 248.977 46.867 248.977C47.2193 248.977 47.5374 248.928 47.8215 248.83C48.1094 248.727 48.3575 248.576 48.5659 248.375C48.7742 248.17 48.9352 247.917 49.0488 247.614L50.3443 247.977C50.2079 248.417 49.9787 248.803 49.6568 249.136C49.3348 249.466 48.9371 249.723 48.4636 249.909C47.9901 250.091 47.4579 250.182 46.867 250.182ZM52.3604 250V241.273H53.6559V242.636H53.7695C53.9513 242.17 54.2449 241.809 54.6502 241.551C55.0555 241.29 55.5422 241.159 56.1104 241.159C56.6862 241.159 57.1653 241.29 57.5479 241.551C57.9343 241.809 58.2354 242.17 58.4513 242.636H58.5422C58.7657 242.186 59.1009 241.828 59.5479 241.562C59.9949 241.294 60.5309 241.159 61.1559 241.159C61.9362 241.159 62.5744 241.403 63.0706 241.892C63.5668 242.377 63.8149 243.133 63.8149 244.159V250H62.474V244.159C62.474 243.515 62.2979 243.055 61.9456 242.778C61.5934 242.502 61.1786 242.364 60.7013 242.364C60.0877 242.364 59.6123 242.549 59.2752 242.92C58.938 243.288 58.7695 243.754 58.7695 244.318V250H57.4059V244.023C57.4059 243.527 57.2449 243.127 56.9229 242.824C56.6009 242.517 56.1862 242.364 55.6786 242.364C55.3301 242.364 55.0043 242.456 54.7013 242.642C54.4021 242.828 54.1596 243.085 53.974 243.415C53.7922 243.741 53.7013 244.117 53.7013 244.545V250H52.3604ZM66.1066 250V241.273H67.4476V250H66.1066ZM66.7885 239.818C66.5271 239.818 66.3017 239.729 66.1123 239.551C65.9267 239.373 65.8339 239.159 65.8339 238.909C65.8339 238.659 65.9267 238.445 66.1123 238.267C66.3017 238.089 66.5271 238 66.7885 238C67.0498 238 67.2733 238.089 67.4589 238.267C67.6483 238.445 67.743 238.659 67.743 238.909C67.743 239.159 67.6483 239.373 67.4589 239.551C67.2733 239.729 67.0498 239.818 66.7885 239.818ZM70.7435 241.273L72.8344 244.841L74.9253 241.273H76.4708L73.6526 245.636L76.4708 250H74.9253L72.8344 246.614L70.7435 250H69.1981L71.9708 245.636L69.1981 241.273H70.7435ZM84.1551 238.364V250H82.746V238.364H84.1551ZM90.184 250.182C89.3658 250.182 88.6613 249.989 88.0703 249.602C87.4794 249.216 87.0249 248.684 86.7067 248.006C86.3885 247.328 86.2294 246.553 86.2294 245.682C86.2294 244.795 86.3923 244.013 86.7181 243.335C87.0476 242.653 87.5059 242.121 88.0931 241.739C88.684 241.352 89.3734 241.159 90.1613 241.159C90.7749 241.159 91.3279 241.273 91.8203 241.5C92.3128 241.727 92.7162 242.045 93.0306 242.455C93.345 242.864 93.54 243.341 93.6158 243.886H92.2749C92.1726 243.489 91.9453 243.136 91.5931 242.83C91.2446 242.519 90.7749 242.364 90.184 242.364C89.6613 242.364 89.2029 242.5 88.809 242.773C88.4188 243.042 88.1139 243.422 87.8942 243.915C87.6783 244.403 87.5703 244.977 87.5703 245.636C87.5703 246.311 87.6764 246.898 87.8885 247.398C88.1044 247.898 88.4075 248.286 88.7976 248.562C89.1916 248.839 89.6537 248.977 90.184 248.977C90.5325 248.977 90.8488 248.917 91.1328 248.795C91.4169 248.674 91.6575 248.5 91.8544 248.273C92.0514 248.045 92.1916 247.773 92.2749 247.455H93.6158C93.54 247.97 93.3525 248.434 93.0533 248.847C92.7578 249.256 92.3658 249.581 91.8772 249.824C91.3923 250.062 90.8279 250.182 90.184 250.182ZM98.9615 250.182C98.1736 250.182 97.4823 249.994 96.8876 249.619C96.2967 249.244 95.8346 248.72 95.5013 248.045C95.1717 247.371 95.0069 246.583 95.0069 245.682C95.0069 244.773 95.1717 243.979 95.5013 243.301C95.8346 242.623 96.2967 242.097 96.8876 241.722C97.4823 241.347 98.1736 241.159 98.9615 241.159C99.7494 241.159 100.439 241.347 101.03 241.722C101.624 242.097 102.086 242.623 102.416 243.301C102.749 243.979 102.916 244.773 102.916 245.682C102.916 246.583 102.749 247.371 102.416 248.045C102.086 248.72 101.624 249.244 101.03 249.619C100.439 249.994 99.7494 250.182 98.9615 250.182ZM98.9615 248.977C99.56 248.977 100.052 248.824 100.439 248.517C100.825 248.21 101.111 247.807 101.297 247.307C101.482 246.807 101.575 246.265 101.575 245.682C101.575 245.098 101.482 244.555 101.297 244.051C101.111 243.547 100.825 243.14 100.439 242.83C100.052 242.519 99.56 242.364 98.9615 242.364C98.363 242.364 97.8706 242.519 97.4842 242.83C97.0978 243.14 96.8119 243.547 96.6263 244.051C96.4406 244.555 96.3478 245.098 96.3478 245.682C96.3478 246.265 96.4406 246.807 96.6263 247.307C96.8119 247.807 97.0978 248.21 97.4842 248.517C97.8706 248.824 98.363 248.977 98.9615 248.977ZM106.144 244.75V250H104.803V241.273H106.098V242.636H106.212C106.417 242.193 106.727 241.837 107.144 241.568C107.56 241.295 108.098 241.159 108.757 241.159C109.348 241.159 109.865 241.28 110.309 241.523C110.752 241.761 111.096 242.125 111.343 242.614C111.589 243.098 111.712 243.712 111.712 244.455V250H110.371V244.545C110.371 243.86 110.193 243.326 109.837 242.943C109.481 242.557 108.992 242.364 108.371 242.364C107.943 242.364 107.56 242.456 107.223 242.642C106.89 242.828 106.627 243.098 106.434 243.455C106.24 243.811 106.144 244.242 106.144 244.75ZM117.669 250V241.516H119.012V250H117.669ZM118.341 240.109C117.825 240.109 117.403 239.719 117.403 239.219C117.403 238.719 117.825 238.328 118.341 238.328C118.856 238.328 119.294 238.719 119.294 239.219C119.294 239.719 118.856 240.109 118.341 240.109ZM125.672 243.719C125.484 243.016 124.953 242.547 123.953 242.547C122.906 242.547 122.156 243.109 122.156 243.828C122.156 244.391 122.609 244.781 123.609 245.016L124.875 245.328C126.391 245.688 127.141 246.438 127.141 247.625C127.141 249.094 125.938 250.172 123.812 250.172C121.906 250.172 120.766 249.328 120.547 247.781H121.953C122.109 248.609 122.719 249 123.781 249C124.984 249 125.75 248.5 125.75 247.703C125.75 247.109 125.328 246.703 124.359 246.484L123.078 246.188C121.594 245.844 120.812 245.031 120.812 243.906C120.812 242.453 122.078 241.406 123.953 241.406C125.703 241.406 126.812 242.344 126.984 243.719H125.672ZM132.1 247.594C132.1 245.641 133.819 245.203 135.287 245.094C135.827 245.055 137.202 244.984 137.584 244.969V244.281C137.584 243.203 136.944 242.578 135.662 242.578C134.584 242.578 133.944 243.078 133.756 243.719H132.35C132.522 242.359 133.85 241.406 135.725 241.406C136.834 241.406 138.912 241.734 138.912 244.406V250H137.584V248.844H137.522C137.241 249.422 136.459 250.203 134.991 250.203C133.381 250.203 132.1 249.25 132.1 247.594ZM133.444 247.656C133.444 248.547 134.194 249 135.225 249C136.741 249 137.584 247.984 137.584 246.922V246.062L135.444 246.219C134.225 246.297 133.444 246.734 133.444 247.656ZM149.403 243.719C149.216 243.016 148.684 242.547 147.684 242.547C146.637 242.547 145.887 243.109 145.887 243.828C145.887 244.391 146.341 244.781 147.341 245.016L148.606 245.328C150.122 245.688 150.872 246.438 150.872 247.625C150.872 249.094 149.669 250.172 147.544 250.172C145.637 250.172 144.497 249.328 144.278 247.781H145.684C145.841 248.609 146.45 249 147.512 249C148.716 249 149.481 248.5 149.481 247.703C149.481 247.109 149.059 246.703 148.091 246.484L146.809 246.188C145.325 245.844 144.544 245.031 144.544 243.906C144.544 242.453 145.809 241.406 147.684 241.406C149.434 241.406 150.544 242.344 150.716 243.719H149.403ZM155.984 250.172C153.531 250.172 152.016 248.438 152.016 245.828C152.016 243.219 153.547 241.406 155.859 241.406C157.641 241.406 159.516 242.5 159.516 245.641V246.203H153.359C153.422 248 154.469 248.984 155.984 248.984C157 248.984 157.641 248.547 157.953 248.016H159.391C158.984 249.297 157.734 250.172 155.984 250.172ZM153.375 245.062H158.156C158.156 243.641 157.25 242.594 155.859 242.594C154.391 242.594 153.453 243.75 153.375 245.062ZM164.769 241.516V242.641H162.988V247.562C162.988 248.656 163.519 248.828 164.097 248.828C164.347 248.828 164.691 248.812 164.894 248.797V250.047C164.691 250.078 164.347 250.109 163.956 250.109C162.831 250.109 161.628 249.406 161.628 247.906V242.641H160.347V241.516H161.628V239.484H162.988V241.516H164.769ZM173.587 250.172C171.275 250.172 169.712 248.438 169.712 245.797C169.712 243.156 171.275 241.406 173.587 241.406C175.884 241.406 177.431 243.156 177.431 245.797C177.431 248.438 175.884 250.172 173.587 250.172ZM173.587 248.984C175.291 248.984 176.087 247.484 176.087 245.797C176.087 244.109 175.291 242.594 173.587 242.594C171.853 242.594 171.056 244.109 171.056 245.797C171.056 247.484 171.853 248.984 173.587 248.984ZM182.794 241.516V242.641H180.919V250H179.559V242.641H178.2V241.516H179.559V240.359C179.559 238.984 180.481 238.156 181.981 238.156C182.309 238.156 182.7 238.203 182.981 238.25V239.453C182.7 239.406 182.45 239.391 182.278 239.391C181.341 239.391 180.919 239.781 180.919 240.656V241.516H182.794ZM191.472 250.172C189.159 250.172 187.597 248.438 187.597 245.797C187.597 243.156 189.159 241.406 191.472 241.406C193.769 241.406 195.316 243.156 195.316 245.797C195.316 248.438 193.769 250.172 191.472 250.172ZM191.472 248.984C193.175 248.984 193.972 247.484 193.972 245.797C193.972 244.109 193.175 242.594 191.472 242.594C189.738 242.594 188.941 244.109 188.941 245.797C188.941 247.484 189.738 248.984 191.472 248.984ZM196.881 253.188V241.516H198.178V242.859H198.334C198.616 242.406 199.147 241.406 200.788 241.406C202.913 241.406 204.397 243.094 204.397 245.781C204.397 248.469 202.913 250.172 200.803 250.172C199.178 250.172 198.616 249.172 198.334 248.703H198.225V253.188H196.881ZM198.194 245.75C198.194 247.656 199.053 248.969 200.616 248.969C202.225 248.969 203.053 247.562 203.053 245.75C203.053 243.984 202.241 242.609 200.616 242.609C199.022 242.609 198.194 243.875 198.194 245.75ZM209.509 250.172C207.056 250.172 205.541 248.438 205.541 245.828C205.541 243.219 207.072 241.406 209.384 241.406C211.166 241.406 213.041 242.5 213.041 245.641V246.203H206.884C206.947 248 207.994 248.984 209.509 248.984C210.525 248.984 211.166 248.547 211.478 248.016H212.916C212.509 249.297 211.259 250.172 209.509 250.172ZM206.9 245.062H211.681C211.681 243.641 210.775 242.594 209.384 242.594C207.916 242.594 206.978 243.75 206.9 245.062ZM215.934 244.906V250H214.591V241.516H215.887V242.844H215.997C216.403 241.984 217.184 241.406 218.481 241.406C220.2 241.406 221.341 242.453 221.341 244.609V250H219.997V244.703C219.997 243.391 219.278 242.609 218.075 242.609C216.841 242.609 215.934 243.438 215.934 244.906ZM228.156 244.547V245.781H223.203V244.547H228.156ZM234.738 243.719C234.55 243.016 234.019 242.547 233.019 242.547C231.972 242.547 231.222 243.109 231.222 243.828C231.222 244.391 231.675 244.781 232.675 245.016L233.941 245.328C235.456 245.688 236.206 246.438 236.206 247.625C236.206 249.094 235.003 250.172 232.878 250.172C230.972 250.172 229.831 249.328 229.613 247.781H231.019C231.175 248.609 231.784 249 232.847 249C234.05 249 234.816 248.5 234.816 247.703C234.816 247.109 234.394 246.703 233.425 246.484L232.144 246.188C230.659 245.844 229.878 245.031 229.878 243.906C229.878 242.453 231.144 241.406 233.019 241.406C234.769 241.406 235.878 242.344 236.05 243.719H234.738ZM241.225 250.172C238.913 250.172 237.35 248.438 237.35 245.797C237.35 243.156 238.913 241.406 241.225 241.406C243.522 241.406 245.069 243.156 245.069 245.797C245.069 248.438 243.522 250.172 241.225 250.172ZM241.225 248.984C242.928 248.984 243.725 247.484 243.725 245.797C243.725 244.109 242.928 242.594 241.225 242.594C239.491 242.594 238.694 244.109 238.694 245.797C238.694 247.484 239.491 248.984 241.225 248.984ZM251.994 246.516V241.516H253.322V250H251.994V248.562H251.9C251.494 249.422 250.666 250.109 249.384 250.109C247.775 250.109 246.634 249.062 246.634 246.906V241.516H247.978V246.812C247.978 248.031 248.744 248.812 249.822 248.812C250.775 248.812 251.994 248.094 251.994 246.516ZM255.278 250V241.516H256.575V242.812H256.669C256.981 241.953 257.856 241.375 258.856 241.375C259.059 241.375 259.403 241.391 259.559 241.406V242.766C259.466 242.734 259.091 242.672 258.747 242.672C257.528 242.672 256.622 243.516 256.622 244.656V250H255.278ZM263.859 250.172C261.453 250.172 259.984 248.344 259.984 245.797C259.984 243.219 261.516 241.406 263.828 241.406C265.641 241.406 266.984 242.469 267.203 244.078H265.859C265.672 243.297 264.984 242.594 263.859 242.594C262.344 242.594 261.328 243.844 261.328 245.75C261.328 247.719 262.312 248.969 263.859 248.969C264.859 248.969 265.625 248.438 265.859 247.5H267.203C266.984 249.016 265.75 250.172 263.859 250.172ZM272.222 250.172C269.769 250.172 268.253 248.438 268.253 245.828C268.253 243.219 269.784 241.406 272.097 241.406C273.878 241.406 275.753 242.5 275.753 245.641V246.203H269.597C269.659 248 270.706 248.984 272.222 248.984C273.238 248.984 273.878 248.547 274.191 248.016H275.628C275.222 249.297 273.972 250.172 272.222 250.172ZM269.613 245.062H274.394C274.394 243.641 273.488 242.594 272.097 242.594C270.628 242.594 269.691 243.75 269.613 245.062ZM282.462 244.906V250H281.119V241.516H282.416V242.844H282.525C282.931 241.984 283.712 241.406 285.009 241.406C286.728 241.406 287.869 242.453 287.869 244.609V250H286.525V244.703C286.525 243.391 285.806 242.609 284.603 242.609C283.369 242.609 282.462 243.438 282.462 244.906ZM293.388 250.172C290.934 250.172 289.419 248.438 289.419 245.828C289.419 243.219 290.95 241.406 293.263 241.406C295.044 241.406 296.919 242.5 296.919 245.641V246.203H290.763C290.825 248 291.872 248.984 293.388 248.984C294.403 248.984 295.044 248.547 295.356 248.016H296.794C296.388 249.297 295.138 250.172 293.388 250.172ZM290.778 245.062H295.559C295.559 243.641 294.653 242.594 293.263 242.594C291.794 242.594 290.856 243.75 290.778 245.062ZM303.828 246.516V241.516H305.156V250H303.828V248.562H303.734C303.328 249.422 302.5 250.109 301.219 250.109C299.609 250.109 298.469 249.062 298.469 246.906V241.516H299.812V246.812C299.812 248.031 300.578 248.812 301.656 248.812C302.609 248.812 303.828 248.094 303.828 246.516ZM310.816 241.516V242.641H309.034V247.562C309.034 248.656 309.566 248.828 310.144 248.828C310.394 248.828 310.737 248.812 310.941 248.797V250.047C310.737 250.078 310.394 250.109 310.003 250.109C308.878 250.109 307.675 249.406 307.675 247.906V242.641H306.394V241.516H307.675V239.484H309.034V241.516H310.816ZM312.35 250V241.516H313.647V242.812H313.741C314.053 241.953 314.928 241.375 315.928 241.375C316.131 241.375 316.475 241.391 316.631 241.406V242.766C316.538 242.734 316.163 242.672 315.819 242.672C314.6 242.672 313.694 243.516 313.694 244.656V250H312.35ZM317.322 247.594C317.322 245.641 319.041 245.203 320.509 245.094C321.048 245.055 322.423 244.984 322.806 244.969V244.281C322.806 243.203 322.166 242.578 320.884 242.578C319.806 242.578 319.166 243.078 318.978 243.719H317.572C317.744 242.359 319.072 241.406 320.947 241.406C322.056 241.406 324.134 241.734 324.134 244.406V250H322.806V248.844H322.744C322.462 249.422 321.681 250.203 320.212 250.203C318.603 250.203 317.322 249.25 317.322 247.594ZM318.666 247.656C318.666 248.547 319.416 249 320.447 249C321.962 249 322.806 247.984 322.806 246.922V246.062L320.666 246.219C319.447 246.297 318.666 246.734 318.666 247.656ZM327.434 238.688V250H326.091V238.688H327.434ZM334.234 244.547V245.781H329.281V244.547H334.234ZM340.816 243.719C340.628 243.016 340.097 242.547 339.097 242.547C338.05 242.547 337.3 243.109 337.3 243.828C337.3 244.391 337.753 244.781 338.753 245.016L340.019 245.328C341.534 245.688 342.284 246.438 342.284 247.625C342.284 249.094 341.081 250.172 338.956 250.172C337.05 250.172 335.909 249.328 335.691 247.781H337.097C337.253 248.609 337.862 249 338.925 249C340.128 249 340.894 248.5 340.894 247.703C340.894 247.109 340.472 246.703 339.503 246.484L338.222 246.188C336.737 245.844 335.956 245.031 335.956 243.906C335.956 242.453 337.222 241.406 339.097 241.406C340.847 241.406 341.956 242.344 342.128 243.719H340.816ZM347.538 241.516V242.641H345.756V247.562C345.756 248.656 346.288 248.828 346.866 248.828C347.116 248.828 347.459 248.812 347.663 248.797V250.047C347.459 250.078 347.116 250.109 346.725 250.109C345.6 250.109 344.397 249.406 344.397 247.906V242.641H343.116V241.516H344.397V239.484H345.756V241.516H347.538ZM349.931 253.188C349.634 253.188 349.353 253.172 349.181 253.156V251.953C349.322 251.969 349.634 251.984 349.837 251.984C350.384 251.984 350.837 251.938 351.291 250.703L351.541 250.062L348.4 241.516H349.869L352.181 248.25H352.275L354.587 241.516H356.056L352.462 251.219C351.962 252.547 351.134 253.188 349.931 253.188ZM358.684 238.688V250H357.341V238.688H358.684ZM364.188 250.172C361.734 250.172 360.219 248.438 360.219 245.828C360.219 243.219 361.75 241.406 364.062 241.406C365.844 241.406 367.719 242.5 367.719 245.641V246.203H361.562C361.625 248 362.672 248.984 364.188 248.984C365.203 248.984 365.844 248.547 366.156 248.016H367.594C367.188 249.297 365.938 250.172 364.188 250.172ZM361.578 245.062H366.359C366.359 243.641 365.453 242.594 364.062 242.594C362.594 242.594 361.656 243.75 361.578 245.062ZM377.803 243.719C377.616 243.016 377.084 242.547 376.084 242.547C375.038 242.547 374.288 243.109 374.288 243.828C374.288 244.391 374.741 244.781 375.741 245.016L377.006 245.328C378.522 245.688 379.272 246.438 379.272 247.625C379.272 249.094 378.069 250.172 375.944 250.172C374.038 250.172 372.897 249.328 372.678 247.781H374.084C374.241 248.609 374.85 249 375.913 249C377.116 249 377.881 248.5 377.881 247.703C377.881 247.109 377.459 246.703 376.491 246.484L375.209 246.188C373.725 245.844 372.944 245.031 372.944 243.906C372.944 242.453 374.209 241.406 376.084 241.406C377.834 241.406 378.944 242.344 379.116 243.719H377.803ZM381.681 253.188C381.384 253.188 381.103 253.172 380.931 253.156V251.953C381.072 251.969 381.384 251.984 381.587 251.984C382.134 251.984 382.587 251.938 383.041 250.703L383.291 250.062L380.15 241.516H381.619L383.931 248.25H384.025L386.337 241.516H387.806L384.212 251.219C383.712 252.547 382.884 253.188 381.681 253.188ZM393.809 243.719C393.622 243.016 393.091 242.547 392.091 242.547C391.044 242.547 390.294 243.109 390.294 243.828C390.294 244.391 390.747 244.781 391.747 245.016L393.013 245.328C394.528 245.688 395.278 246.438 395.278 247.625C395.278 249.094 394.075 250.172 391.95 250.172C390.044 250.172 388.903 249.328 388.684 247.781H390.091C390.247 248.609 390.856 249 391.919 249C393.122 249 393.888 248.5 393.888 247.703C393.888 247.109 393.466 246.703 392.497 246.484L391.216 246.188C389.731 245.844 388.95 245.031 388.95 243.906C388.95 242.453 390.216 241.406 392.091 241.406C393.841 241.406 394.95 242.344 395.122 243.719H393.809ZM400.531 241.516V242.641H398.75V247.562C398.75 248.656 399.281 248.828 399.859 248.828C400.109 248.828 400.453 248.812 400.656 248.797V250.047C400.453 250.078 400.109 250.109 399.719 250.109C398.594 250.109 397.391 249.406 397.391 247.906V242.641H396.109V241.516H397.391V239.484H398.75V241.516H400.531ZM405.534 250.172C403.081 250.172 401.566 248.438 401.566 245.828C401.566 243.219 403.097 241.406 405.409 241.406C407.191 241.406 409.066 242.5 409.066 245.641V246.203H402.909C402.972 248 404.019 248.984 405.534 248.984C406.55 248.984 407.191 248.547 407.503 248.016H408.941C408.534 249.297 407.284 250.172 405.534 250.172ZM402.925 245.062H407.706C407.706 243.641 406.8 242.594 405.409 242.594C403.941 242.594 403.003 243.75 402.925 245.062ZM410.616 250V241.516H411.913V242.844H412.022C412.381 241.938 413.194 241.406 414.303 241.406C415.413 241.406 416.163 241.938 416.569 242.844H416.663C417.1 241.969 417.991 241.406 419.209 241.406C420.725 241.406 421.803 242.328 421.803 244.328V250H420.459V244.344C420.459 243.094 419.663 242.609 418.741 242.609C417.553 242.609 416.881 243.406 416.881 244.484V250H415.522V244.203C415.522 243.25 414.834 242.609 413.866 242.609C412.85 242.609 411.959 243.469 411.959 244.703V250H410.616ZM432.294 243.719C432.106 243.016 431.575 242.547 430.575 242.547C429.528 242.547 428.778 243.109 428.778 243.828C428.778 244.391 429.231 244.781 430.231 245.016L431.497 245.328C433.013 245.688 433.763 246.438 433.763 247.625C433.763 249.094 432.559 250.172 430.434 250.172C428.528 250.172 427.388 249.328 427.169 247.781H428.575C428.731 248.609 429.341 249 430.403 249C431.606 249 432.372 248.5 432.372 247.703C432.372 247.109 431.95 246.703 430.981 246.484L429.7 246.188C428.216 245.844 427.434 245.031 427.434 243.906C427.434 242.453 428.7 241.406 430.575 241.406C432.325 241.406 433.434 242.344 433.606 243.719H432.294ZM436.172 253.188C435.875 253.188 435.594 253.172 435.422 253.156V251.953C435.562 251.969 435.875 251.984 436.078 251.984C436.625 251.984 437.078 251.938 437.531 250.703L437.781 250.062L434.641 241.516H436.109L438.422 248.25H438.516L440.828 241.516H442.297L438.703 251.219C438.203 252.547 437.375 253.188 436.172 253.188ZM443.581 250V241.516H444.878V242.844H444.987C445.347 241.938 446.159 241.406 447.269 241.406C448.378 241.406 449.128 241.938 449.534 242.844H449.628C450.066 241.969 450.956 241.406 452.175 241.406C453.691 241.406 454.769 242.328 454.769 244.328V250H453.425V244.344C453.425 243.094 452.628 242.609 451.706 242.609C450.519 242.609 449.847 243.406 449.847 244.484V250H448.487V244.203C448.487 243.25 447.8 242.609 446.831 242.609C445.816 242.609 444.925 243.469 444.925 244.703V250H443.581ZM456.897 250V238.688H458.241V242.859H458.35C458.647 242.406 459.147 241.406 460.803 241.406C462.928 241.406 464.428 243.094 464.428 245.781C464.428 248.469 462.928 250.172 460.819 250.172C459.194 250.172 458.647 249.172 458.35 248.703H458.194V250H456.897ZM458.209 245.75C458.209 247.656 459.069 248.969 460.616 248.969C462.225 248.969 463.069 247.562 463.069 245.75C463.069 243.984 462.256 242.609 460.616 242.609C459.053 242.609 458.209 243.875 458.209 245.75ZM469.447 250.172C467.134 250.172 465.572 248.438 465.572 245.797C465.572 243.156 467.134 241.406 469.447 241.406C471.744 241.406 473.291 243.156 473.291 245.797C473.291 248.438 471.744 250.172 469.447 250.172ZM469.447 248.984C471.15 248.984 471.947 247.484 471.947 245.797C471.947 244.109 471.15 242.594 469.447 242.594C467.712 242.594 466.916 244.109 466.916 245.797C466.916 247.484 467.712 248.984 469.447 248.984ZM476.2 238.688V250H474.856V238.688H476.2ZM482.859 243.719C482.672 243.016 482.141 242.547 481.141 242.547C480.094 242.547 479.344 243.109 479.344 243.828C479.344 244.391 479.797 244.781 480.797 245.016L482.062 245.328C483.578 245.688 484.328 246.438 484.328 247.625C484.328 249.094 483.125 250.172 481 250.172C479.094 250.172 477.953 249.328 477.734 247.781H479.141C479.297 248.609 479.906 249 480.969 249C482.172 249 482.938 248.5 482.938 247.703C482.938 247.109 482.516 246.703 481.547 246.484L480.266 246.188C478.781 245.844 478 245.031 478 243.906C478 242.453 479.266 241.406 481.141 241.406C482.891 241.406 484 242.344 484.172 243.719H482.859ZM493.256 250.172C490.803 250.172 489.288 248.438 489.288 245.828C489.288 243.219 490.819 241.406 493.131 241.406C494.913 241.406 496.788 242.5 496.788 245.641V246.203H490.631C490.694 248 491.741 248.984 493.256 248.984C494.272 248.984 494.913 248.547 495.225 248.016H496.663C496.256 249.297 495.006 250.172 493.256 250.172ZM490.647 245.062H495.428C495.428 243.641 494.522 242.594 493.131 242.594C491.663 242.594 490.725 243.75 490.647 245.062ZM499.681 238.688V250H498.337V238.688H499.681ZM501.216 247.594C501.216 245.641 502.934 245.203 504.403 245.094C504.942 245.055 506.317 244.984 506.7 244.969V244.281C506.7 243.203 506.059 242.578 504.778 242.578C503.7 242.578 503.059 243.078 502.872 243.719H501.466C501.638 242.359 502.966 241.406 504.841 241.406C505.95 241.406 508.028 241.734 508.028 244.406V250H506.7V248.844H506.638C506.356 249.422 505.575 250.203 504.106 250.203C502.497 250.203 501.216 249.25 501.216 247.594ZM502.559 247.656C502.559 248.547 503.309 249 504.341 249C505.856 249 506.7 247.984 506.7 246.922V246.062L504.559 246.219C503.341 246.297 502.559 246.734 502.559 247.656ZM510.156 250V238.688H511.5V242.859H511.609C511.906 242.406 512.406 241.406 514.062 241.406C516.188 241.406 517.688 243.094 517.688 245.781C517.688 248.469 516.188 250.172 514.078 250.172C512.453 250.172 511.906 249.172 511.609 248.703H511.453V250H510.156ZM511.469 245.75C511.469 247.656 512.328 248.969 513.875 248.969C515.484 248.969 516.328 247.562 516.328 245.75C516.328 243.984 515.516 242.609 513.875 242.609C512.312 242.609 511.469 243.875 511.469 245.75ZM522.706 250.172C520.394 250.172 518.831 248.438 518.831 245.797C518.831 243.156 520.394 241.406 522.706 241.406C525.003 241.406 526.55 243.156 526.55 245.797C526.55 248.438 525.003 250.172 522.706 250.172ZM522.706 248.984C524.409 248.984 525.206 247.484 525.206 245.797C525.206 244.109 524.409 242.594 522.706 242.594C520.972 242.594 520.175 244.109 520.175 245.797C520.175 247.484 520.972 248.984 522.706 248.984ZM528.116 250V241.516H529.413V242.812H529.506C529.819 241.953 530.694 241.375 531.694 241.375C531.897 241.375 532.241 241.391 532.397 241.406V242.766C532.303 242.734 531.928 242.672 531.584 242.672C530.366 242.672 529.459 243.516 529.459 244.656V250H528.116ZM533.087 247.594C533.087 245.641 534.806 245.203 536.275 245.094C536.814 245.055 538.189 244.984 538.572 244.969V244.281C538.572 243.203 537.931 242.578 536.65 242.578C535.572 242.578 534.931 243.078 534.744 243.719H533.337C533.509 242.359 534.837 241.406 536.712 241.406C537.822 241.406 539.9 241.734 539.9 244.406V250H538.572V248.844H538.509C538.228 249.422 537.447 250.203 535.978 250.203C534.369 250.203 533.087 249.25 533.087 247.594ZM534.431 247.656C534.431 248.547 535.181 249 536.212 249C537.728 249 538.572 247.984 538.572 246.922V246.062L536.431 246.219C535.212 246.297 534.431 246.734 534.431 247.656ZM545.559 241.516V242.641H543.778V247.562C543.778 248.656 544.309 248.828 544.888 248.828C545.138 248.828 545.481 248.812 545.684 248.797V250.047C545.481 250.078 545.138 250.109 544.747 250.109C543.622 250.109 542.419 249.406 542.419 247.906V242.641H541.138V241.516H542.419V239.484H543.778V241.516H545.559ZM550.562 250.172C548.109 250.172 546.594 248.438 546.594 245.828C546.594 243.219 548.125 241.406 550.438 241.406C552.219 241.406 554.094 242.5 554.094 245.641V246.203H547.938C548 248 549.047 248.984 550.562 248.984C551.578 248.984 552.219 248.547 552.531 248.016H553.969C553.562 249.297 552.312 250.172 550.562 250.172ZM547.953 245.062H552.734C552.734 243.641 551.828 242.594 550.438 242.594C548.969 242.594 548.031 243.75 547.953 245.062ZM556.987 238.688V250H555.644V238.688H556.987ZM559.787 253.188C559.491 253.188 559.209 253.172 559.037 253.156V251.953C559.178 251.969 559.491 251.984 559.694 251.984C560.241 251.984 560.694 251.938 561.147 250.703L561.397 250.062L558.256 241.516H559.725L562.037 248.25H562.131L564.444 241.516H565.912L562.319 251.219C561.819 252.547 560.991 253.188 559.787 253.188ZM574.481 250.172C572.075 250.172 570.606 248.344 570.606 245.797C570.606 243.219 572.138 241.406 574.45 241.406C576.263 241.406 577.606 242.469 577.825 244.078H576.481C576.294 243.297 575.606 242.594 574.481 242.594C572.966 242.594 571.95 243.844 571.95 245.75C571.95 247.719 572.934 248.969 574.481 248.969C575.481 248.969 576.247 248.438 576.481 247.5H577.825C577.606 249.016 576.372 250.172 574.481 250.172ZM579.281 250V241.516H580.578V242.812H580.672C580.984 241.953 581.859 241.375 582.859 241.375C583.062 241.375 583.406 241.391 583.562 241.406V242.766C583.469 242.734 583.094 242.672 582.75 242.672C581.531 242.672 580.625 243.516 580.625 244.656V250H579.281ZM584.253 247.594C584.253 245.641 585.972 245.203 587.441 245.094C587.98 245.055 589.355 244.984 589.737 244.969V244.281C589.737 243.203 589.097 242.578 587.816 242.578C586.737 242.578 586.097 243.078 585.909 243.719H584.503C584.675 242.359 586.003 241.406 587.878 241.406C588.987 241.406 591.066 241.734 591.066 244.406V250H589.737V248.844H589.675C589.394 249.422 588.612 250.203 587.144 250.203C585.534 250.203 584.253 249.25 584.253 247.594ZM585.597 247.656C585.597 248.547 586.347 249 587.378 249C588.894 249 589.737 247.984 589.737 246.922V246.062L587.597 246.219C586.378 246.297 585.597 246.734 585.597 247.656ZM596.819 241.516V242.641H594.944V250H593.584V242.641H592.225V241.516H593.584V240.359C593.584 238.984 594.506 238.156 596.006 238.156C596.334 238.156 596.725 238.203 597.006 238.25V239.453C596.725 239.406 596.475 239.391 596.303 239.391C595.366 239.391 594.944 239.781 594.944 240.656V241.516H596.819ZM601.916 241.516V242.641H600.134V247.562C600.134 248.656 600.666 248.828 601.244 248.828C601.494 248.828 601.838 248.812 602.041 248.797V250.047C601.838 250.078 601.494 250.109 601.103 250.109C599.978 250.109 598.775 249.406 598.775 247.906V242.641H597.494V241.516H598.775V239.484H600.134V241.516H601.916ZM606.919 250.172C604.466 250.172 602.95 248.438 602.95 245.828C602.95 243.219 604.481 241.406 606.794 241.406C608.575 241.406 610.45 242.5 610.45 245.641V246.203H604.294C604.356 248 605.403 248.984 606.919 248.984C607.934 248.984 608.575 248.547 608.888 248.016H610.325C609.919 249.297 608.669 250.172 606.919 250.172ZM604.309 245.062H609.091C609.091 243.641 608.184 242.594 606.794 242.594C605.325 242.594 604.388 243.75 604.309 245.062ZM615.203 250.172C613.094 250.172 611.594 248.469 611.594 245.781C611.594 243.094 613.094 241.406 615.219 241.406C616.859 241.406 617.391 242.406 617.672 242.859H617.766V238.688H619.125V250H617.812V248.703H617.672C617.375 249.172 616.828 250.172 615.203 250.172ZM615.391 248.969C616.938 248.969 617.812 247.656 617.812 245.75C617.812 243.875 616.969 242.609 615.391 242.609C613.766 242.609 612.953 243.984 612.953 245.75C612.953 247.562 613.781 248.969 615.391 248.969ZM628.866 241.516V242.641H626.991V250H625.631V242.641H624.272V241.516H625.631V240.359C625.631 238.984 626.553 238.156 628.053 238.156C628.381 238.156 628.772 238.203 629.053 238.25V239.453C628.772 239.406 628.522 239.391 628.35 239.391C627.412 239.391 626.991 239.781 626.991 240.656V241.516H628.866ZM633.369 250.172C631.056 250.172 629.494 248.438 629.494 245.797C629.494 243.156 631.056 241.406 633.369 241.406C635.666 241.406 637.213 243.156 637.213 245.797C637.213 248.438 635.666 250.172 633.369 250.172ZM633.369 248.984C635.072 248.984 635.869 247.484 635.869 245.797C635.869 244.109 635.072 242.594 633.369 242.594C631.634 242.594 630.838 244.109 630.838 245.797C630.838 247.484 631.634 248.984 633.369 248.984ZM638.778 250V241.516H640.075V242.812H640.169C640.481 241.953 641.356 241.375 642.356 241.375C642.559 241.375 642.903 241.391 643.059 241.406V242.766C642.966 242.734 642.591 242.672 642.247 242.672C641.028 242.672 640.122 243.516 640.122 244.656V250H638.778ZM651.191 250.172C649.081 250.172 647.581 248.469 647.581 245.781C647.581 243.094 649.081 241.406 651.206 241.406C652.847 241.406 653.378 242.406 653.659 242.859H653.753V238.688H655.112V250H653.8V248.703H653.659C653.362 249.172 652.816 250.172 651.191 250.172ZM651.378 248.969C652.925 248.969 653.8 247.656 653.8 245.75C653.8 243.875 652.956 242.609 651.378 242.609C649.753 242.609 648.941 243.984 648.941 245.75C648.941 247.562 649.769 248.969 651.378 248.969ZM660.803 250.172C658.35 250.172 656.834 248.438 656.834 245.828C656.834 243.219 658.366 241.406 660.678 241.406C662.459 241.406 664.334 242.5 664.334 245.641V246.203H658.178C658.241 248 659.287 248.984 660.803 248.984C661.819 248.984 662.459 248.547 662.772 248.016H664.209C663.803 249.297 662.553 250.172 660.803 250.172ZM658.194 245.062H662.975C662.975 243.641 662.069 242.594 660.678 242.594C659.209 242.594 658.272 243.75 658.194 245.062ZM670.603 243.719C670.416 243.016 669.884 242.547 668.884 242.547C667.838 242.547 667.088 243.109 667.088 243.828C667.088 244.391 667.541 244.781 668.541 245.016L669.806 245.328C671.322 245.688 672.072 246.438 672.072 247.625C672.072 249.094 670.869 250.172 668.744 250.172C666.838 250.172 665.697 249.328 665.478 247.781H666.884C667.041 248.609 667.65 249 668.713 249C669.916 249 670.681 248.5 670.681 247.703C670.681 247.109 670.259 246.703 669.291 246.484L668.009 246.188C666.525 245.844 665.744 245.031 665.744 243.906C665.744 242.453 667.009 241.406 668.884 241.406C670.634 241.406 671.744 242.344 671.916 243.719H670.603ZM673.622 250V241.516H674.966V250H673.622ZM674.294 240.109C673.778 240.109 673.356 239.719 673.356 239.219C673.356 238.719 673.778 238.328 674.294 238.328C674.809 238.328 675.247 238.719 675.247 239.219C675.247 239.719 674.809 240.109 674.294 240.109ZM680.344 253.359C678.297 253.359 676.906 252.469 676.75 250.891H678.156C678.344 251.75 679.141 252.188 680.344 252.188C681.797 252.188 682.688 251.562 682.688 250.156V248.438H682.578C682.297 248.906 681.75 249.875 680.109 249.875C678.047 249.875 676.5 248.312 676.5 245.641C676.5 243.031 678 241.406 680.125 241.406C681.766 241.406 682.297 242.406 682.609 242.859H682.719V241.516H684.031V250.234C684.031 252.422 682.406 253.359 680.344 253.359ZM680.297 248.672C681.844 248.672 682.719 247.562 682.719 245.688C682.719 243.875 681.875 242.609 680.297 242.609C678.672 242.609 677.859 243.984 677.859 245.688C677.859 247.453 678.688 248.672 680.297 248.672ZM687.316 244.906V250H685.972V241.516H687.269V242.844H687.378C687.784 241.984 688.566 241.406 689.862 241.406C691.581 241.406 692.722 242.453 692.722 244.609V250H691.378V244.703C691.378 243.391 690.659 242.609 689.456 242.609C688.222 242.609 687.316 243.438 687.316 244.906ZM698.241 250.172C695.787 250.172 694.272 248.438 694.272 245.828C694.272 243.219 695.803 241.406 698.116 241.406C699.897 241.406 701.772 242.5 701.772 245.641V246.203H695.616C695.678 248 696.725 248.984 698.241 248.984C699.256 248.984 699.897 248.547 700.209 248.016H701.647C701.241 249.297 699.991 250.172 698.241 250.172ZM695.631 245.062H700.412C700.412 243.641 699.506 242.594 698.116 242.594C696.647 242.594 695.709 243.75 695.631 245.062ZM703.322 250V241.516H704.619V242.812H704.713C705.025 241.953 705.9 241.375 706.9 241.375C707.103 241.375 707.447 241.391 707.603 241.406V242.766C707.509 242.734 707.134 242.672 706.791 242.672C705.572 242.672 704.666 243.516 704.666 244.656V250H703.322ZM713.434 243.719C713.247 243.016 712.716 242.547 711.716 242.547C710.669 242.547 709.919 243.109 709.919 243.828C709.919 244.391 710.372 244.781 711.372 245.016L712.638 245.328C714.153 245.688 714.903 246.438 714.903 247.625C714.903 249.094 713.7 250.172 711.575 250.172C709.669 250.172 708.528 249.328 708.309 247.781H709.716C709.872 248.609 710.481 249 711.544 249C712.747 249 713.513 248.5 713.513 247.703C713.513 247.109 713.091 246.703 712.122 246.484L710.841 246.188C709.356 245.844 708.575 245.031 708.575 243.906C708.575 242.453 709.841 241.406 711.716 241.406C713.466 241.406 714.575 242.344 714.747 243.719H713.434ZM719.862 247.594C719.862 245.641 721.581 245.203 723.05 245.094C723.589 245.055 724.964 244.984 725.347 244.969V244.281C725.347 243.203 724.706 242.578 723.425 242.578C722.347 242.578 721.706 243.078 721.519 243.719H720.112C720.284 242.359 721.612 241.406 723.487 241.406C724.597 241.406 726.675 241.734 726.675 244.406V250H725.347V248.844H725.284C725.003 249.422 724.222 250.203 722.753 250.203C721.144 250.203 719.862 249.25 719.862 247.594ZM721.206 247.656C721.206 248.547 721.956 249 722.987 249C724.503 249 725.347 247.984 725.347 246.922V246.062L723.206 246.219C721.987 246.297 721.206 246.734 721.206 247.656ZM729.975 244.906V250H728.631V241.516H729.928V242.844H730.037C730.444 241.984 731.225 241.406 732.522 241.406C734.241 241.406 735.381 242.453 735.381 244.609V250H734.037V244.703C734.037 243.391 733.319 242.609 732.116 242.609C730.881 242.609 729.975 243.438 729.975 244.906ZM740.541 250.172C738.431 250.172 736.931 248.469 736.931 245.781C736.931 243.094 738.431 241.406 740.556 241.406C742.197 241.406 742.728 242.406 743.009 242.859H743.103V238.688H744.463V250H743.15V248.703H743.009C742.713 249.172 742.166 250.172 740.541 250.172ZM740.728 248.969C742.275 248.969 743.15 247.656 743.15 245.75C743.15 243.875 742.306 242.609 740.728 242.609C739.103 242.609 738.291 243.984 738.291 245.75C738.291 247.562 739.119 248.969 740.728 248.969ZM36.2812 274.172C34.1719 274.172 32.6719 272.469 32.6719 269.781C32.6719 267.094 34.1719 265.406 36.2969 265.406C37.9375 265.406 38.4688 266.406 38.75 266.859H38.8438V262.688H40.2031V274H38.8906V272.703H38.75C38.4531 273.172 37.9062 274.172 36.2812 274.172ZM36.4688 272.969C38.0156 272.969 38.8906 271.656 38.8906 269.75C38.8906 267.875 38.0469 266.609 36.4688 266.609C34.8438 266.609 34.0312 267.984 34.0312 269.75C34.0312 271.562 34.8594 272.969 36.4688 272.969ZM45.8938 274.172C43.4406 274.172 41.925 272.438 41.925 269.828C41.925 267.219 43.4563 265.406 45.7688 265.406C47.55 265.406 49.425 266.5 49.425 269.641V270.203H43.2688C43.3313 272 44.3781 272.984 45.8938 272.984C46.9094 272.984 47.55 272.547 47.8625 272.016H49.3C48.8938 273.297 47.6438 274.172 45.8938 274.172ZM43.2844 269.062H48.0656C48.0656 267.641 47.1594 266.594 45.7688 266.594C44.3 266.594 43.3625 267.75 43.2844 269.062ZM57.6938 265.516L54.5531 274H53.1625L50.0375 265.516H51.5063L53.8188 272.25H53.9125L56.225 265.516H57.6938ZM62.2281 274.172C59.775 274.172 58.2594 272.438 58.2594 269.828C58.2594 267.219 59.7906 265.406 62.1031 265.406C63.8844 265.406 65.7594 266.5 65.7594 269.641V270.203H59.6031C59.6656 272 60.7125 272.984 62.2281 272.984C63.2437 272.984 63.8844 272.547 64.1969 272.016H65.6344C65.2281 273.297 63.9781 274.172 62.2281 274.172ZM59.6187 269.062H64.4C64.4 267.641 63.4937 266.594 62.1031 266.594C60.6344 266.594 59.6969 267.75 59.6187 269.062ZM68.6531 262.688V274H67.3094V262.688H68.6531ZM74.0625 274.172C71.75 274.172 70.1875 272.438 70.1875 269.797C70.1875 267.156 71.75 265.406 74.0625 265.406C76.3594 265.406 77.9062 267.156 77.9062 269.797C77.9062 272.438 76.3594 274.172 74.0625 274.172ZM74.0625 272.984C75.7656 272.984 76.5625 271.484 76.5625 269.797C76.5625 268.109 75.7656 266.594 74.0625 266.594C72.3281 266.594 71.5312 268.109 71.5312 269.797C71.5312 271.484 72.3281 272.984 74.0625 272.984ZM79.4719 277.188V265.516H80.7687V266.859H80.925C81.2062 266.406 81.7375 265.406 83.3781 265.406C85.5031 265.406 86.9875 267.094 86.9875 269.781C86.9875 272.469 85.5031 274.172 83.3937 274.172C81.7687 274.172 81.2062 273.172 80.925 272.703H80.8156V277.188H79.4719ZM80.7844 269.75C80.7844 271.656 81.6437 272.969 83.2062 272.969C84.8156 272.969 85.6437 271.562 85.6437 269.75C85.6437 267.984 84.8312 266.609 83.2062 266.609C81.6125 266.609 80.7844 267.875 80.7844 269.75ZM92.1 274.172C89.6469 274.172 88.1312 272.438 88.1312 269.828C88.1312 267.219 89.6625 265.406 91.975 265.406C93.7562 265.406 95.6312 266.5 95.6312 269.641V270.203H89.475C89.5375 272 90.5844 272.984 92.1 272.984C93.1156 272.984 93.7562 272.547 94.0687 272.016H95.5062C95.1 273.297 93.85 274.172 92.1 274.172ZM89.4906 269.062H94.2719C94.2719 267.641 93.3656 266.594 91.975 266.594C90.5062 266.594 89.5687 267.75 89.4906 269.062ZM97.1813 274V265.516H98.4781V266.812H98.5719C98.8844 265.953 99.7594 265.375 100.759 265.375C100.963 265.375 101.306 265.391 101.463 265.406V266.766C101.369 266.734 100.994 266.672 100.65 266.672C99.4313 266.672 98.525 267.516 98.525 268.656V274H97.1813ZM107.294 267.719C107.106 267.016 106.575 266.547 105.575 266.547C104.528 266.547 103.778 267.109 103.778 267.828C103.778 268.391 104.231 268.781 105.231 269.016L106.497 269.328C108.012 269.688 108.762 270.438 108.762 271.625C108.762 273.094 107.559 274.172 105.434 274.172C103.528 274.172 102.387 273.328 102.169 271.781H103.575C103.731 272.609 104.341 273 105.403 273C106.606 273 107.372 272.5 107.372 271.703C107.372 271.109 106.95 270.703 105.981 270.484L104.7 270.188C103.216 269.844 102.434 269.031 102.434 267.906C102.434 266.453 103.7 265.406 105.575 265.406C107.325 265.406 108.434 266.344 108.606 267.719H107.294ZM111.266 274.094C110.719 274.094 110.25 273.641 110.266 273.078C110.25 272.531 110.719 272.078 111.266 272.078C111.812 272.078 112.266 272.531 112.266 273.078C112.266 273.641 111.812 274.094 111.266 274.094ZM114.847 274H113.378L117.519 262.688H119.003L123.144 274H121.659L120.534 270.812H115.988L114.847 274ZM116.409 269.578H120.097L118.3 264.516H118.206L116.409 269.578ZM125.647 262.688V274H124.303V262.688H125.647ZM128.931 262.688V274H127.588V262.688H128.931ZM138.156 274.172C135.844 274.172 134.281 272.438 134.281 269.797C134.281 267.156 135.844 265.406 138.156 265.406C140.453 265.406 142 267.156 142 269.797C142 272.438 140.453 274.172 138.156 274.172ZM138.156 272.984C139.859 272.984 140.656 271.484 140.656 269.797C140.656 268.109 139.859 266.594 138.156 266.594C136.422 266.594 135.625 268.109 135.625 269.797C135.625 271.484 136.422 272.984 138.156 272.984ZM147.363 265.516V266.641H145.488V274H144.128V266.641H142.769V265.516H144.128V264.359C144.128 262.984 145.05 262.156 146.55 262.156C146.878 262.156 147.269 262.203 147.55 262.25V263.453C147.269 263.406 147.019 263.391 146.847 263.391C145.909 263.391 145.488 263.781 145.488 264.656V265.516H147.363ZM156.275 265.516V266.641H154.494V271.562C154.494 272.656 155.025 272.828 155.603 272.828C155.853 272.828 156.197 272.812 156.4 272.797V274.047C156.197 274.078 155.853 274.109 155.463 274.109C154.338 274.109 153.134 273.406 153.134 271.906V266.641H151.853V265.516H153.134V263.484H154.494V265.516H156.275ZM159.341 268.906V274H157.997V262.688H159.341V266.844H159.45C159.841 265.969 160.606 265.406 161.95 265.406C163.684 265.406 164.841 266.438 164.841 268.609V274H163.497V268.703C163.497 267.375 162.762 266.609 161.544 266.609C160.278 266.609 159.341 267.438 159.341 268.906ZM170.359 274.172C167.906 274.172 166.391 272.438 166.391 269.828C166.391 267.219 167.922 265.406 170.234 265.406C172.016 265.406 173.891 266.5 173.891 269.641V270.203H167.734C167.797 272 168.844 272.984 170.359 272.984C171.375 272.984 172.016 272.547 172.328 272.016H173.766C173.359 273.297 172.109 274.172 170.359 274.172ZM167.75 269.062H172.531C172.531 267.641 171.625 266.594 170.234 266.594C168.766 266.594 167.828 267.75 167.75 269.062ZM179.256 274V265.516H180.6V274H179.256ZM179.928 264.109C179.413 264.109 178.991 263.719 178.991 263.219C178.991 262.719 179.413 262.328 179.928 262.328C180.444 262.328 180.881 262.719 180.881 263.219C180.881 263.719 180.444 264.109 179.928 264.109ZM186.009 274.172C183.603 274.172 182.134 272.344 182.134 269.797C182.134 267.219 183.666 265.406 185.978 265.406C187.791 265.406 189.134 266.469 189.353 268.078H188.009C187.822 267.297 187.134 266.594 186.009 266.594C184.494 266.594 183.478 267.844 183.478 269.75C183.478 271.719 184.462 272.969 186.009 272.969C187.009 272.969 187.775 272.438 188.009 271.5H189.353C189.134 273.016 187.9 274.172 186.009 274.172ZM194.278 274.172C191.966 274.172 190.403 272.438 190.403 269.797C190.403 267.156 191.966 265.406 194.278 265.406C196.575 265.406 198.122 267.156 198.122 269.797C198.122 272.438 196.575 274.172 194.278 274.172ZM194.278 272.984C195.981 272.984 196.778 271.484 196.778 269.797C196.778 268.109 195.981 266.594 194.278 266.594C192.544 266.594 191.747 268.109 191.747 269.797C191.747 271.484 192.544 272.984 194.278 272.984ZM201.031 268.906V274H199.688V265.516H200.984V266.844H201.094C201.5 265.984 202.281 265.406 203.578 265.406C205.297 265.406 206.438 266.453 206.438 268.609V274H205.094V268.703C205.094 267.391 204.375 266.609 203.172 266.609C201.938 266.609 201.031 267.438 201.031 268.906ZM213.113 267.719C212.925 267.016 212.394 266.547 211.394 266.547C210.347 266.547 209.597 267.109 209.597 267.828C209.597 268.391 210.05 268.781 211.05 269.016L212.316 269.328C213.831 269.688 214.581 270.438 214.581 271.625C214.581 273.094 213.378 274.172 211.253 274.172C209.347 274.172 208.206 273.328 207.988 271.781H209.394C209.55 272.609 210.159 273 211.222 273C212.425 273 213.191 272.5 213.191 271.703C213.191 271.109 212.769 270.703 211.8 270.484L210.519 270.188C209.034 269.844 208.253 269.031 208.253 267.906C208.253 266.453 209.519 265.406 211.394 265.406C213.144 265.406 214.253 266.344 214.425 267.719H213.113ZM219.541 271.594C219.541 269.641 221.259 269.203 222.728 269.094C223.267 269.055 224.642 268.984 225.025 268.969V268.281C225.025 267.203 224.384 266.578 223.103 266.578C222.025 266.578 221.384 267.078 221.197 267.719H219.791C219.962 266.359 221.291 265.406 223.166 265.406C224.275 265.406 226.353 265.734 226.353 268.406V274H225.025V272.844H224.962C224.681 273.422 223.9 274.203 222.431 274.203C220.822 274.203 219.541 273.25 219.541 271.594ZM220.884 271.656C220.884 272.547 221.634 273 222.666 273C224.181 273 225.025 271.984 225.025 270.922V270.062L222.884 270.219C221.666 270.297 220.884 270.734 220.884 271.656ZM228.309 274V265.516H229.606V266.812H229.7C230.012 265.953 230.887 265.375 231.887 265.375C232.091 265.375 232.434 265.391 232.591 265.406V266.766C232.497 266.734 232.122 266.672 231.778 266.672C230.559 266.672 229.653 267.516 229.653 268.656V274H228.309ZM236.984 274.172C234.531 274.172 233.016 272.438 233.016 269.828C233.016 267.219 234.547 265.406 236.859 265.406C238.641 265.406 240.516 266.5 240.516 269.641V270.203H234.359C234.422 272 235.469 272.984 236.984 272.984C238 272.984 238.641 272.547 238.953 272.016H240.391C239.984 273.297 238.734 274.172 236.984 274.172ZM234.375 269.062H239.156C239.156 267.641 238.25 266.594 236.859 266.594C235.391 266.594 234.453 267.75 234.375 269.062ZM249.678 265.516V266.641H247.803V274H246.444V266.641H245.084V265.516H246.444V264.359C246.444 262.984 247.366 262.156 248.866 262.156C249.194 262.156 249.584 262.203 249.866 262.25V263.453C249.584 263.406 249.334 263.391 249.163 263.391C248.225 263.391 247.803 263.781 247.803 264.656V265.516H249.678ZM251.072 274V265.516H252.369V266.812H252.462C252.775 265.953 253.65 265.375 254.65 265.375C254.853 265.375 255.197 265.391 255.353 265.406V266.766C255.259 266.734 254.884 266.672 254.541 266.672C253.322 266.672 252.416 267.516 252.416 268.656V274H251.072ZM259.747 274.172C257.294 274.172 255.778 272.438 255.778 269.828C255.778 267.219 257.309 265.406 259.622 265.406C261.403 265.406 263.278 266.5 263.278 269.641V270.203H257.122C257.184 272 258.231 272.984 259.747 272.984C260.762 272.984 261.403 272.547 261.716 272.016H263.153C262.747 273.297 261.497 274.172 259.747 274.172ZM257.137 269.062H261.919C261.919 267.641 261.012 266.594 259.622 266.594C258.153 266.594 257.216 267.75 257.137 269.062ZM268.391 274.172C265.938 274.172 264.422 272.438 264.422 269.828C264.422 267.219 265.953 265.406 268.266 265.406C270.047 265.406 271.922 266.5 271.922 269.641V270.203H265.766C265.828 272 266.875 272.984 268.391 272.984C269.406 272.984 270.047 272.547 270.359 272.016H271.797C271.391 273.297 270.141 274.172 268.391 274.172ZM265.781 269.062H270.562C270.562 267.641 269.656 266.594 268.266 266.594C266.797 266.594 265.859 267.75 265.781 269.062ZM281.084 265.516V266.641H279.209V274H277.85V266.641H276.491V265.516H277.85V264.359C277.85 262.984 278.772 262.156 280.272 262.156C280.6 262.156 280.991 262.203 281.272 262.25V263.453C280.991 263.406 280.741 263.391 280.569 263.391C279.631 263.391 279.209 263.781 279.209 264.656V265.516H281.084ZM285.587 274.172C283.275 274.172 281.712 272.438 281.712 269.797C281.712 267.156 283.275 265.406 285.587 265.406C287.884 265.406 289.431 267.156 289.431 269.797C289.431 272.438 287.884 274.172 285.587 274.172ZM285.587 272.984C287.291 272.984 288.087 271.484 288.087 269.797C288.087 268.109 287.291 266.594 285.587 266.594C283.853 266.594 283.056 268.109 283.056 269.797C283.056 271.484 283.853 272.984 285.587 272.984ZM290.997 274V265.516H292.294V266.812H292.388C292.7 265.953 293.575 265.375 294.575 265.375C294.778 265.375 295.122 265.391 295.278 265.406V266.766C295.184 266.734 294.809 266.672 294.466 266.672C293.247 266.672 292.341 267.516 292.341 268.656V274H290.997ZM300.378 274V262.688H301.722V266.859H301.831C302.128 266.406 302.628 265.406 304.284 265.406C306.409 265.406 307.909 267.094 307.909 269.781C307.909 272.469 306.409 274.172 304.3 274.172C302.675 274.172 302.128 273.172 301.831 272.703H301.675V274H300.378ZM301.691 269.75C301.691 271.656 302.55 272.969 304.097 272.969C305.706 272.969 306.55 271.562 306.55 269.75C306.55 267.984 305.737 266.609 304.097 266.609C302.534 266.609 301.691 267.875 301.691 269.75ZM312.928 274.172C310.616 274.172 309.053 272.438 309.053 269.797C309.053 267.156 310.616 265.406 312.928 265.406C315.225 265.406 316.772 267.156 316.772 269.797C316.772 272.438 315.225 274.172 312.928 274.172ZM312.928 272.984C314.631 272.984 315.428 271.484 315.428 269.797C315.428 268.109 314.631 266.594 312.928 266.594C311.194 266.594 310.397 268.109 310.397 269.797C310.397 271.484 311.194 272.984 312.928 272.984ZM322.041 265.516V266.641H320.259V271.562C320.259 272.656 320.791 272.828 321.369 272.828C321.619 272.828 321.962 272.812 322.166 272.797V274.047C321.962 274.078 321.619 274.109 321.228 274.109C320.103 274.109 318.9 273.406 318.9 271.906V266.641H317.619V265.516H318.9V263.484H320.259V265.516H322.041ZM325.106 268.906V274H323.763V262.688H325.106V266.844H325.216C325.606 265.969 326.372 265.406 327.716 265.406C329.45 265.406 330.606 266.438 330.606 268.609V274H329.263V268.703C329.263 267.375 328.528 266.609 327.309 266.609C326.044 266.609 325.106 267.438 325.106 268.906ZM336.378 277.188V265.516H337.675V266.859H337.831C338.112 266.406 338.644 265.406 340.284 265.406C342.409 265.406 343.894 267.094 343.894 269.781C343.894 272.469 342.409 274.172 340.3 274.172C338.675 274.172 338.112 273.172 337.831 272.703H337.722V277.188H336.378ZM337.691 269.75C337.691 271.656 338.55 272.969 340.112 272.969C341.722 272.969 342.55 271.562 342.55 269.75C342.55 267.984 341.737 266.609 340.112 266.609C338.519 266.609 337.691 267.875 337.691 269.75ZM349.006 274.172C346.553 274.172 345.038 272.438 345.038 269.828C345.038 267.219 346.569 265.406 348.881 265.406C350.663 265.406 352.538 266.5 352.538 269.641V270.203H346.381C346.444 272 347.491 272.984 349.006 272.984C350.022 272.984 350.663 272.547 350.975 272.016H352.413C352.006 273.297 350.756 274.172 349.006 274.172ZM346.397 269.062H351.178C351.178 267.641 350.272 266.594 348.881 266.594C347.413 266.594 346.475 267.75 346.397 269.062ZM354.087 274V265.516H355.384V266.812H355.478C355.791 265.953 356.666 265.375 357.666 265.375C357.869 265.375 358.212 265.391 358.369 265.406V266.766C358.275 266.734 357.9 266.672 357.556 266.672C356.337 266.672 355.431 267.516 355.431 268.656V274H354.087ZM364.2 267.719C364.013 267.016 363.481 266.547 362.481 266.547C361.434 266.547 360.684 267.109 360.684 267.828C360.684 268.391 361.138 268.781 362.138 269.016L363.403 269.328C364.919 269.688 365.669 270.438 365.669 271.625C365.669 273.094 364.466 274.172 362.341 274.172C360.434 274.172 359.294 273.328 359.075 271.781H360.481C360.638 272.609 361.247 273 362.309 273C363.513 273 364.278 272.5 364.278 271.703C364.278 271.109 363.856 270.703 362.888 270.484L361.606 270.188C360.122 269.844 359.341 269.031 359.341 267.906C359.341 266.453 360.606 265.406 362.481 265.406C364.231 265.406 365.341 266.344 365.513 267.719H364.2ZM370.688 274.172C368.375 274.172 366.812 272.438 366.812 269.797C366.812 267.156 368.375 265.406 370.688 265.406C372.984 265.406 374.531 267.156 374.531 269.797C374.531 272.438 372.984 274.172 370.688 274.172ZM370.688 272.984C372.391 272.984 373.188 271.484 373.188 269.797C373.188 268.109 372.391 266.594 370.688 266.594C368.953 266.594 368.156 268.109 368.156 269.797C368.156 271.484 368.953 272.984 370.688 272.984ZM377.441 268.906V274H376.097V265.516H377.394V266.844H377.503C377.909 265.984 378.691 265.406 379.987 265.406C381.706 265.406 382.847 266.453 382.847 268.609V274H381.503V268.703C381.503 267.391 380.784 266.609 379.581 266.609C378.347 266.609 377.441 267.438 377.441 268.906ZM384.397 271.594C384.397 269.641 386.116 269.203 387.584 269.094C388.123 269.055 389.498 268.984 389.881 268.969V268.281C389.881 267.203 389.241 266.578 387.959 266.578C386.881 266.578 386.241 267.078 386.053 267.719H384.647C384.819 266.359 386.147 265.406 388.022 265.406C389.131 265.406 391.209 265.734 391.209 268.406V274H389.881V272.844H389.819C389.538 273.422 388.756 274.203 387.288 274.203C385.678 274.203 384.397 273.25 384.397 271.594ZM385.741 271.656C385.741 272.547 386.491 273 387.522 273C389.038 273 389.881 271.984 389.881 270.922V270.062L387.741 270.219C386.522 270.297 385.741 270.734 385.741 271.656ZM394.509 262.688V274H393.166V262.688H394.509ZM399.859 271.594C399.859 269.641 401.578 269.203 403.047 269.094C403.586 269.055 404.961 268.984 405.344 268.969V268.281C405.344 267.203 404.703 266.578 403.422 266.578C402.344 266.578 401.703 267.078 401.516 267.719H400.109C400.281 266.359 401.609 265.406 403.484 265.406C404.594 265.406 406.672 265.734 406.672 268.406V274H405.344V272.844H405.281C405 273.422 404.219 274.203 402.75 274.203C401.141 274.203 399.859 273.25 399.859 271.594ZM401.203 271.656C401.203 272.547 401.953 273 402.984 273C404.5 273 405.344 271.984 405.344 270.922V270.062L403.203 270.219C401.984 270.297 401.203 270.734 401.203 271.656ZM409.972 268.906V274H408.628V265.516H409.925V266.844H410.034C410.441 265.984 411.222 265.406 412.519 265.406C414.237 265.406 415.378 266.453 415.378 268.609V274H414.034V268.703C414.034 267.391 413.316 266.609 412.112 266.609C410.878 266.609 409.972 267.438 409.972 268.906ZM420.538 274.172C418.428 274.172 416.928 272.469 416.928 269.781C416.928 267.094 418.428 265.406 420.553 265.406C422.194 265.406 422.725 266.406 423.006 266.859H423.1V262.688H424.459V274H423.147V272.703H423.006C422.709 273.172 422.163 274.172 420.538 274.172ZM420.725 272.969C422.272 272.969 423.147 271.656 423.147 269.75C423.147 267.875 422.303 266.609 420.725 266.609C419.1 266.609 418.288 267.984 418.288 269.75C418.288 271.562 419.116 272.969 420.725 272.969ZM433.872 274.172C431.466 274.172 429.997 272.344 429.997 269.797C429.997 267.219 431.528 265.406 433.841 265.406C435.653 265.406 436.997 266.469 437.216 268.078H435.872C435.684 267.297 434.997 266.594 433.872 266.594C432.356 266.594 431.341 267.844 431.341 269.75C431.341 271.719 432.325 272.969 433.872 272.969C434.872 272.969 435.638 272.438 435.872 271.5H437.216C436.997 273.016 435.763 274.172 433.872 274.172ZM442.141 274.172C439.828 274.172 438.266 272.438 438.266 269.797C438.266 267.156 439.828 265.406 442.141 265.406C444.438 265.406 445.984 267.156 445.984 269.797C445.984 272.438 444.438 274.172 442.141 274.172ZM442.141 272.984C443.844 272.984 444.641 271.484 444.641 269.797C444.641 268.109 443.844 266.594 442.141 266.594C440.406 266.594 439.609 268.109 439.609 269.797C439.609 271.484 440.406 272.984 442.141 272.984ZM447.55 274V265.516H448.847V266.844H448.956C449.316 265.938 450.128 265.406 451.237 265.406C452.347 265.406 453.097 265.938 453.503 266.844H453.597C454.034 265.969 454.925 265.406 456.144 265.406C457.659 265.406 458.737 266.328 458.737 268.328V274H457.394V268.344C457.394 267.094 456.597 266.609 455.675 266.609C454.487 266.609 453.816 267.406 453.816 268.484V274H452.456V268.203C452.456 267.25 451.769 266.609 450.8 266.609C449.784 266.609 448.894 267.469 448.894 268.703V274H447.55ZM460.694 274V265.516H461.991V266.844H462.1C462.459 265.938 463.272 265.406 464.381 265.406C465.491 265.406 466.241 265.938 466.647 266.844H466.741C467.178 265.969 468.069 265.406 469.288 265.406C470.803 265.406 471.881 266.328 471.881 268.328V274H470.538V268.344C470.538 267.094 469.741 266.609 468.819 266.609C467.631 266.609 466.959 267.406 466.959 268.484V274H465.6V268.203C465.6 267.25 464.913 266.609 463.944 266.609C462.928 266.609 462.038 267.469 462.038 268.703V274H460.694ZM477.4 274.172C474.947 274.172 473.431 272.438 473.431 269.828C473.431 267.219 474.962 265.406 477.275 265.406C479.056 265.406 480.931 266.5 480.931 269.641V270.203H474.775C474.837 272 475.884 272.984 477.4 272.984C478.416 272.984 479.056 272.547 479.369 272.016H480.806C480.4 273.297 479.15 274.172 477.4 274.172ZM474.791 269.062H479.572C479.572 267.641 478.666 266.594 477.275 266.594C475.806 266.594 474.869 267.75 474.791 269.062ZM482.481 274V265.516H483.778V266.812H483.872C484.184 265.953 485.059 265.375 486.059 265.375C486.263 265.375 486.606 265.391 486.763 265.406V266.766C486.669 266.734 486.294 266.672 485.95 266.672C484.731 266.672 483.825 267.516 483.825 268.656V274H482.481ZM491.062 274.172C488.656 274.172 487.188 272.344 487.188 269.797C487.188 267.219 488.719 265.406 491.031 265.406C492.844 265.406 494.188 266.469 494.406 268.078H493.062C492.875 267.297 492.188 266.594 491.062 266.594C489.547 266.594 488.531 267.844 488.531 269.75C488.531 271.719 489.516 272.969 491.062 272.969C492.062 272.969 492.828 272.438 493.062 271.5H494.406C494.188 273.016 492.953 274.172 491.062 274.172ZM495.862 274V265.516H497.206V274H495.862ZM496.534 264.109C496.019 264.109 495.597 263.719 495.597 263.219C495.597 262.719 496.019 262.328 496.534 262.328C497.05 262.328 497.487 262.719 497.487 263.219C497.487 263.719 497.05 264.109 496.534 264.109ZM498.741 271.594C498.741 269.641 500.459 269.203 501.928 269.094C502.467 269.055 503.842 268.984 504.225 268.969V268.281C504.225 267.203 503.584 266.578 502.303 266.578C501.225 266.578 500.584 267.078 500.397 267.719H498.991C499.163 266.359 500.491 265.406 502.366 265.406C503.475 265.406 505.553 265.734 505.553 268.406V274H504.225V272.844H504.163C503.881 273.422 503.1 274.203 501.631 274.203C500.022 274.203 498.741 273.25 498.741 271.594ZM500.084 271.656C500.084 272.547 500.834 273 501.866 273C503.381 273 504.225 271.984 504.225 270.922V270.062L502.084 270.219C500.866 270.297 500.084 270.734 500.084 271.656ZM508.853 262.688V274H507.509V262.688H508.853ZM519.969 270.516V265.516H521.297V274H519.969V272.562H519.875C519.469 273.422 518.641 274.109 517.359 274.109C515.75 274.109 514.609 273.062 514.609 270.906V265.516H515.953V270.812C515.953 272.031 516.719 272.812 517.797 272.812C518.75 272.812 519.969 272.094 519.969 270.516ZM527.972 267.719C527.784 267.016 527.253 266.547 526.253 266.547C525.206 266.547 524.456 267.109 524.456 267.828C524.456 268.391 524.909 268.781 525.909 269.016L527.175 269.328C528.691 269.688 529.441 270.438 529.441 271.625C529.441 273.094 528.237 274.172 526.112 274.172C524.206 274.172 523.066 273.328 522.847 271.781H524.253C524.409 272.609 525.019 273 526.081 273C527.284 273 528.05 272.5 528.05 271.703C528.05 271.109 527.628 270.703 526.659 270.484L525.378 270.188C523.894 269.844 523.112 269.031 523.112 267.906C523.112 266.453 524.378 265.406 526.253 265.406C528.003 265.406 529.112 266.344 529.284 267.719H527.972ZM534.553 274.172C532.1 274.172 530.584 272.438 530.584 269.828C530.584 267.219 532.116 265.406 534.428 265.406C536.209 265.406 538.084 266.5 538.084 269.641V270.203H531.928C531.991 272 533.038 272.984 534.553 272.984C535.569 272.984 536.209 272.547 536.522 272.016H537.959C537.553 273.297 536.303 274.172 534.553 274.172ZM531.944 269.062H536.725C536.725 267.641 535.819 266.594 534.428 266.594C532.959 266.594 532.022 267.75 531.944 269.062ZM540.587 274.094C540.041 274.094 539.572 273.641 539.587 273.078C539.572 272.531 540.041 272.078 540.587 272.078C541.134 272.078 541.587 272.531 541.587 273.078C541.587 273.641 541.134 274.094 540.587 274.094Z" fill="#0F1324" fill-opacity="0.6"/>
<path d="M32 253.182H112.775V254.273H32V253.182Z" fill="#0F1324" fill-opacity="0.6"/>
<a href="https://remixicon.com/">
<rect fill="black" fill-opacity="0" y="2.31818" width="80.9393" height="19.3636"/>
</a>
</svg>
